Playback.2012.HDRiP.AC3-2.0.XviD-SiC

IMDB Link: 
http://www.imdb.com/title/tt1682940/

Description:
A cop investigates the case of a missing local teen, though he discovers a dark secret that has been unleashed in his town, and an evil spirit that will stop at nothing to find its heir.

MediaInfo:
General
Complete name                            : Playback.2012.HDRiP.AC3-2.0.XviD-SiC.avi
Format                                   : AVI
Format/Info                              : Audio Video Interleave
File size                                : 1.36 GiB
Duration                                 : 1h 38mn
Overall bit rate                         : 1 977 Kbps

Video
ID                                       : 0
Format                                   : MPEG-4 Visual
Format profile                           : Advanced Simple@L5
Format settings, BVOP                    : 2
Format settings, QPel                    : No
Format settings, GMC                     : No warppoints
Format settings, Matrix                  : Default (H.263)
Muxing mode                              : Packed bitstream
Codec ID                                 : XVID
Codec ID/Hint                            : XviD
Duration                                 : 1h 38mn
Bit rate                                 : 1 714 Kbps
Width                                    : 720 pixels
Height                                   : 400 pixels
Display aspect ratio                     : 16:9
Frame rate                               : 23.976 fps
Color space                              : YUV
Chroma subsampling                       : 4:2:0
Bit depth                                : 8 bits
Scan type                                : Progressive
Compression mode                         : Lossy
Bits/(Pixel*Frame)                       : 0.248
Stream size                              : 1.18 GiB (87%)
Writing library                          : XviD 1.1.2 (UTC 2006-11-01)

Audio
ID                                       : 1
Format                                   : AC-3
Format/Info                              : Audio Coding 3
Mode extension                           : CM (complete main)
Codec ID                                 : 2000
Duration                                 : 1h 38mn
Bit rate mode                            : Constant
Bit rate                                 : 256 Kbps
Channel(s)                               : 2 channels
Channel positions                        : Front: L R
Sampling rate                            : 48.0 KHz
Bit depth                                : 16 bits
Compression mode                         : Lossy
Stream size                              : 180 MiB (13%)
Alignment                                : Aligned on interleaves
Interleave, duration                     : 64 ms (1.53 video frames)
Interleave, preload duration             : 192 ms
Title                                    : playback


Note : Encoded from a 720p HD wmv Digital VOD Rental. Did the usual stuff, 
turned out nice. Enjoy the film before it hits theatres!

Source: 720p wmv Digital VOD Rental / Our Own - big whoop, wanna fight about it?

Enjoy!

Respects to T00NG0D, ELEKTRI4KA, PA, YeFsTe, MrRep and everyone in the struggle...RiP MU


Poster:

 
http://i.imgur.com/bT6k1.jpg


Screenshots:

 
http://i.imgur.com/YDDAG.jpg


ENJOY!